<svg width="25" height="28" viewBox="0 0 25 28" fill="none" xmlns="http://www.w3.org/2000/svg">
<g clip-path="url(#clip0_1_146)">
<path d="M21.9286 1.71423H3.07143C2.38944 1.71423 1.73539 1.98515 1.25315 2.46739C0.770918 2.94962 0.5 3.60368 0.5 4.28566L0.5 23.1428C0.5 23.8248 0.770918 24.4788 1.25315 24.9611C1.73539 25.4433 2.38944 25.7142 3.07143 25.7142H10.4241V17.5548H7.04911V13.7142H10.4241V10.7871C10.4241 7.45763 12.4063 5.61852 15.4421 5.61852C16.8961 5.61852 18.4164 5.87781 18.4164 5.87781V9.14566H16.7413C15.0907 9.14566 14.5759 10.1699 14.5759 11.2205V13.7142H18.2605L17.6712 17.5548H14.5759V25.7142H21.9286C22.6106 25.7142 23.2646 25.4433 23.7468 24.9611C24.2291 24.4788 24.5 23.8248 24.5 23.1428V4.28566C24.5 3.60368 24.2291 2.94962 23.7468 2.46739C23.2646 1.98515 22.6106 1.71423 21.9286 1.71423Z" fill="#111827"/>
</g>
<defs>
<clipPath id="clip0_1_146">
<rect width="24" height="27.4286" fill="white" transform="translate(0.5)"/>
</clipPath>
</defs>
</svg>
