<svg width="25" height="28" viewBox="0 0 25 28" fill="none" xmlns="http://www.w3.org/2000/svg">
<g clip-path="url(#clip0_1_148)">
<path d="M12.5054 7.55362C9.09822 7.55362 6.35 10.3018 6.35 13.709C6.35 17.1161 9.09822 19.8643 12.5054 19.8643C15.9125 19.8643 18.6607 17.1161 18.6607 13.709C18.6607 10.3018 15.9125 7.55362 12.5054 7.55362ZM12.5054 17.7108C10.3036 17.7108 8.50357 15.9161 8.50357 13.709C8.50357 11.5018 10.2982 9.70719 12.5054 9.70719C14.7125 9.70719 16.5071 11.5018 16.5071 13.709C16.5071 15.9161 14.7071 17.7108 12.5054 17.7108ZM20.3482 7.30183C20.3482 8.10005 19.7053 8.73755 18.9125 8.73755C18.1143 8.73755 17.4768 8.09469 17.4768 7.30183C17.4768 6.50897 18.1196 5.86612 18.9125 5.86612C19.7053 5.86612 20.3482 6.50897 20.3482 7.30183ZM24.425 8.75897C24.3339 6.83576 23.8946 5.13219 22.4857 3.72862C21.0821 2.32505 19.3786 1.88576 17.4553 1.78933C15.4732 1.67683 9.53214 1.67683 7.55 1.78933C5.63215 1.8804 3.92858 2.31969 2.51965 3.72326C1.11073 5.12683 0.676798 6.8304 0.580369 8.75362C0.46787 10.7358 0.46787 16.6768 0.580369 18.659C0.671441 20.5822 1.11073 22.2858 2.51965 23.6893C3.92858 25.0929 5.62679 25.5322 7.55 25.6286C9.53214 25.7411 15.4732 25.7411 17.4553 25.6286C19.3786 25.5375 21.0821 25.0983 22.4857 23.6893C23.8893 22.2858 24.3286 20.5822 24.425 18.659C24.5375 16.6768 24.5375 10.7411 24.425 8.75897ZM21.8643 20.7858C21.4464 21.8358 20.6375 22.6447 19.5821 23.0679C18.0018 23.6947 14.2518 23.55 12.5054 23.55C10.7589 23.55 7.00358 23.6893 5.42858 23.0679C4.37858 22.65 3.56965 21.8411 3.14644 20.7858C2.51965 19.2054 2.6643 15.4554 2.6643 13.709C2.6643 11.9625 2.52501 8.20719 3.14644 6.63219C3.56429 5.58219 4.37322 4.77326 5.42858 4.35005C7.00893 3.72326 10.7589 3.8679 12.5054 3.8679C14.2518 3.8679 18.0071 3.72862 19.5821 4.35005C20.6321 4.7679 21.4411 5.57683 21.8643 6.63219C22.4911 8.21255 22.3464 11.9625 22.3464 13.709C22.3464 15.4554 22.4911 19.2108 21.8643 20.7858Z" fill="#111827"/>
</g>
<defs>
<clipPath id="clip0_1_148">
<rect width="24" height="27.4286" fill="white" transform="translate(0.5)"/>
</clipPath>
</defs>
</svg>
