<svg width="25" height="25" viewBox="0 0 25 25" fill="none" xmlns="http://www.w3.org/2000/svg">
<g clip-path="url(#clip0_1_150)">
<path d="M22.033 7.82586C22.0482 8.03905 22.0482 8.25228 22.0482 8.46547C22.0482 14.968 17.099 22.4604 8.0533 22.4604C5.26648 22.4604 2.67767 21.6532 0.5 20.2523C0.895953 20.2979 1.27662 20.3132 1.68781 20.3132C3.98727 20.3132 6.10405 19.5365 7.79441 18.2117C5.63197 18.166 3.81978 16.7497 3.19541 14.8005C3.5 14.8461 3.80455 14.8766 4.12437 14.8766C4.56598 14.8766 5.00764 14.8157 5.41878 14.7091C3.16498 14.2522 1.47458 12.2726 1.47458 9.88171V9.82081C2.12937 10.1863 2.89086 10.4147 3.69791 10.4451C2.37303 9.56188 1.50505 8.05428 1.50505 6.34869C1.50505 5.435 1.74866 4.59744 2.17508 3.86647C4.59641 6.85124 8.23602 8.80044 12.3172 9.01367C12.2411 8.64819 12.1954 8.26752 12.1954 7.8868C12.1954 5.17611 14.3883 2.96802 17.1141 2.96802C18.5304 2.96802 19.8095 3.56192 20.708 4.52131C21.8197 4.30813 22.8857 3.89694 23.8299 3.3335C23.4643 4.47566 22.6877 5.43505 21.6674 6.04414C22.6573 5.9376 23.6167 5.66342 24.4999 5.28275C23.83 6.25733 22.9924 7.12531 22.033 7.82586Z" fill="#111827"/>
</g>
<defs>
<clipPath id="clip0_1_150">
<rect width="24" height="24" fill="white" transform="translate(0.5 0.714233)"/>
</clipPath>
</defs>
</svg>
