<svg width="25" height="22" viewBox="0 0 25 22" fill="none" xmlns="http://www.w3.org/2000/svg">
<path d="M23.4023 5.21769C23.1406 4.23228 22.3695 3.45619 21.3905 3.19282C19.6159 2.71423 12.5 2.71423 12.5 2.71423C12.5 2.71423 5.38416 2.71423 3.60953 3.19282C2.63049 3.45623 1.8594 4.23228 1.59769 5.21769C1.12219 7.00382 1.12219 10.7304 1.12219 10.7304C1.12219 10.7304 1.12219 14.457 1.59769 16.2431C1.8594 17.2285 2.63049 17.9723 3.60953 18.2357C5.38416 18.7142 12.5 18.7142 12.5 18.7142C12.5 18.7142 19.6158 18.7142 21.3905 18.2357C22.3695 17.9723 23.1406 17.2285 23.4023 16.2431C23.8778 14.457 23.8778 10.7304 23.8778 10.7304C23.8778 10.7304 23.8778 7.00382 23.4023 5.21769ZM10.1727 14.1139V7.34694L16.1202 10.7305L10.1727 14.1139Z" fill="#111827"/>
</svg>
